<?xml version="1.0" encoding="UTF-8"?>
<!DOCTYPE svg PUBLIC "-//W3C//DTD SVG 1.1//EN" "http://www.w3.org/Graphics/SVG/1.1/DTD/svg11.dtd">
<!-- Creator: CorelDRAW -->
<svg xmlns="http://www.w3.org/2000/svg" xml:space="preserve" width="32px" height="32px" version="1.1" style="shape-rendering:geometricPrecision; text-rendering:geometricPrecision; image-rendering:optimizeQuality; fill-rule:evenodd; clip-rule:evenodd"
viewBox="0 0 1.89 1.89"
 xmlns:xlink="http://www.w3.org/1999/xlink"
 xmlns:xodm="http://www.corel.com/coreldraw/odm/2003">
 <defs>
  <style type="text/css">
   <![CDATA[
    .fil2 {fill:none}
    .fil0 {fill:#66547F}
    .fil1 {fill:#66547F}
   ]]>
  </style>
 </defs>
 <g id="Layer_x0020_1">
  <metadata id="CorelCorpID_0Corel-Layer"/>
  <path class="fil0" d="M0.95 0.85c0.08,-0.16 0.17,-0.24 0.35,-0.24 0.19,0 0.35,0.14 0.35,0.31 0,0.31 -0.35,0.62 -0.7,0.93 -0.35,-0.31 -0.71,-0.62 -0.71,-0.93 0,-0.17 0.16,-0.31 0.36,-0.31 0.17,0 0.26,0.08 0.35,0.24zm0.37 -0.03c0.06,0 0.1,0.04 0.1,0.09 0,0.06 -0.04,0.1 -0.1,0.1 -0.05,0 -0.09,-0.04 -0.09,-0.1 0,-0.05 0.04,-0.09 0.09,-0.09zm-0.32 0.28c0.04,-0.07 0.08,-0.1 0.15,-0.1 0.08,0 0.15,0.06 0.15,0.13 0,0.14 -0.15,0.27 -0.3,0.41 -0.15,-0.14 -0.3,-0.27 -0.3,-0.41 0,-0.07 0.07,-0.13 0.15,-0.13 0.08,0 0.11,0.03 0.15,0.1z"/>
  <circle class="fil1" cx="0.95" cy="0.35" r="0.27"/>
 </g>
 <g id="Layer_x0020_1_0">
  <metadata id="CorelCorpID_1Corel-Layer"/>
  <rect class="fil2" width="1.89" height="1.89" rx="0.3" ry="0.29"/>
 </g>
</svg>
