<?xml version="1.0" encoding="UTF-8"?>
<!DOCTYPE svg PUBLIC "-//W3C//DTD SVG 1.1//EN" "http://www.w3.org/Graphics/SVG/1.1/DTD/svg11.dtd">
<!-- Creator: CorelDRAW -->
<svg xmlns="http://www.w3.org/2000/svg" xml:space="preserve" width="30px" height="30px" version="1.1" style="shape-rendering:geometricPrecision; text-rendering:geometricPrecision; image-rendering:optimizeQuality; fill-rule:evenodd; clip-rule:evenodd"
viewBox="0 0 0.98 0.98"
 xmlns:xlink="http://www.w3.org/1999/xlink"
 xmlns:xodm="http://www.corel.com/coreldraw/odm/2003">
 <defs>
  <style type="text/css">
   <![CDATA[
    .fil0 {fill:#65558F;fill-rule:nonzero}
   ]]>
  </style>
 </defs>
 <g id="Layer_x0020_1">
  <metadata id="CorelCorpID_0Corel-Layer"/>
  <path class="fil0" d="M0.93 0.98l-0.37 -0.36c-0.02,0.02 -0.06,0.04 -0.09,0.05 -0.04,0.02 -0.08,0.02 -0.12,0.02 -0.1,0 -0.18,-0.03 -0.25,-0.1 -0.07,-0.06 -0.1,-0.15 -0.1,-0.24 0,-0.1 0.03,-0.18 0.1,-0.25 0.07,-0.07 0.15,-0.1 0.25,-0.1 0.09,0 0.18,0.03 0.24,0.1 0.07,0.07 0.1,0.15 0.1,0.25 0,0.04 0,0.08 -0.02,0.11 -0.01,0.04 -0.03,0.08 -0.05,0.1l0.36 0.37 -0.05 0.05zm-0.58 -0.36c0.07,0 0.14,-0.02 0.19,-0.08 0.06,-0.05 0.08,-0.12 0.08,-0.19 0,-0.08 -0.02,-0.14 -0.08,-0.2 -0.05,-0.05 -0.12,-0.08 -0.19,-0.08 -0.08,0 -0.14,0.03 -0.2,0.08 -0.05,0.06 -0.08,0.12 -0.08,0.2 0,0.07 0.03,0.14 0.08,0.19 0.06,0.06 0.12,0.08 0.2,0.08z"/>
 </g>
</svg>
