<svg width="19" height="20" viewBox="0 0 19 20" fill="none" xmlns="http://www.w3.org/2000/svg">
<path d="M3.37425 15.5462C4.32342 14.8769 5.2945 14.3551 6.2875 13.9808C7.2805 13.6064 8.35133 13.4193 9.5 13.4193C10.6487 13.4193 11.7212 13.6064 12.7175 13.9808C13.714 14.3551 14.6868 14.8769 15.636 15.5462C16.3278 14.7569 16.8521 13.9003 17.2087 12.9765C17.5653 12.0525 17.7435 11.0603 17.7435 10C17.7435 7.6885 16.9475 5.73667 15.3555 4.1445C13.7633 2.5525 11.8115 1.7565 9.5 1.7565C7.1885 1.7565 5.23667 2.5525 3.6445 4.1445C2.0525 5.73667 1.2565 7.6885 1.2565 10C1.2565 11.0603 1.4365 12.0525 1.7965 12.9765C2.1565 13.9003 2.68242 14.7569 3.37425 15.5462ZM9.4965 10.6283C8.59283 10.6283 7.832 10.3181 7.214 9.69775C6.59617 9.07742 6.28725 8.31542 6.28725 7.41175C6.28725 6.50825 6.59742 5.7475 7.21775 5.1295C7.83792 4.5115 8.59983 4.2025 9.5035 4.2025C10.4072 4.2025 11.168 4.51267 11.786 5.133C12.4038 5.75333 12.7128 6.51533 12.7128 7.419C12.7128 8.3225 12.4026 9.08325 11.7822 9.70125C11.1621 10.3193 10.4002 10.6283 9.4965 10.6283ZM9.50775 19.5C8.19025 19.5 6.95417 19.2519 5.7995 18.7558C4.645 18.2596 3.63792 17.5812 2.77825 16.7205C1.91842 15.8598 1.24042 14.854 0.74425 13.703C0.248083 12.552 0 11.3173 0 9.99875C0 8.68042 0.248083 7.44608 0.74425 6.29575C1.24042 5.14558 1.91883 4.14017 2.7795 3.2795C3.64017 2.41883 4.646 1.74042 5.797 1.24425C6.948 0.748084 8.18275 0.5 9.50125 0.5C10.8196 0.5 12.0539 0.748084 13.2042 1.24425C14.3544 1.74042 15.3598 2.41883 16.2205 3.2795C17.0812 4.14017 17.7596 5.14583 18.2558 6.2965C18.7519 7.447 19 8.67892 19 9.99225C19 11.3098 18.7519 12.5458 18.2558 13.7005C17.7596 14.855 17.0812 15.8621 16.2205 16.7218C15.3598 17.5816 14.3542 18.2596 13.2035 18.7558C12.053 19.2519 10.8211 19.5 9.50775 19.5ZM9.5 18.2435C10.4205 18.2435 11.3217 18.0967 12.2035 17.803C13.0853 17.5092 13.9008 17.0552 14.65 16.441C13.9008 15.882 13.0922 15.448 12.224 15.139C11.3558 14.83 10.4478 14.6755 9.5 14.6755C8.55217 14.6755 7.64258 14.8284 6.77125 15.1342C5.89975 15.4401 5.09483 15.8757 4.3565 16.441C5.10133 17.0552 5.91467 17.5092 6.7965 17.803C7.67833 18.0967 8.5795 18.2435 9.5 18.2435ZM9.501 9.37175C10.0653 9.37175 10.5323 9.18667 10.902 8.8165C11.2717 8.44617 11.4565 7.97883 11.4565 7.4145C11.4565 6.85017 11.2713 6.38317 10.901 6.0135C10.5308 5.64383 10.0635 5.459 9.499 5.459C8.93467 5.459 8.46767 5.64408 8.098 6.01425C7.72833 6.38458 7.5435 6.85192 7.5435 7.41625C7.5435 7.98058 7.72867 8.44758 8.099 8.81725C8.46917 9.18692 8.9365 9.37175 9.501 9.37175Z" fill="#65558F"/>
</svg>
