<svg width="30" height="31" viewBox="0 0 30 31" fill="none" xmlns="http://www.w3.org/2000/svg">
<path d="M1.57923 30.9434L12.7808 19.7419C13.6504 20.494 14.6596 21.0766 15.8084 21.4895C16.9575 21.9022 18.1467 22.1086 19.376 22.1086C22.3454 22.1086 24.8585 21.0808 26.9153 19.0252C28.9718 16.9696 30 14.4708 30 11.5288C30 8.58648 28.9722 6.08666 26.9166 4.02934C24.861 1.97202 22.36 0.943359 19.4135 0.943359C16.4671 0.943359 13.9655 1.97129 11.9087 4.02716C9.85168 6.08332 8.82314 8.58299 8.82314 11.5262C8.82314 12.7564 9.0324 13.9465 9.45091 15.0964C9.86913 16.2463 10.4585 17.2743 11.219 18.1802L0 29.3524L1.57923 30.9434ZM19.3939 19.9164C17.0553 19.9164 15.0743 19.1027 13.4509 17.4752C11.8274 15.8475 11.0157 13.8643 11.0157 11.5257C11.0157 9.18719 11.8274 7.20418 13.4509 5.5767C15.0743 3.94922 17.0553 3.13548 19.3939 3.13548C21.7424 3.13548 23.7318 3.94922 25.3622 5.5767C26.9926 7.20418 27.8078 9.18719 27.8078 11.5257C27.8078 13.8643 26.9926 15.8475 25.3622 17.4752C23.7318 19.1027 21.7424 19.9164 19.3939 19.9164Z" fill="#65558F"/>
</svg>
