<svg width="54" height="51" viewBox="0 0 54 51" fill="none" xmlns="http://www.w3.org/2000/svg">
<path d="M26.0498 2.16406C26.3492 1.24276 27.6528 1.24274 27.9521 2.16406L32.7852 17.0391C33.1868 18.2751 34.339 19.1123 35.6387 19.1123H51.2793C52.248 19.1123 52.6509 20.3515 51.8672 20.9209L39.2139 30.1143C38.1624 30.8782 37.7224 32.2327 38.124 33.4688L42.957 48.3438C43.2564 49.2651 42.2017 50.0313 41.418 49.4619L28.7646 40.2686C27.7132 39.5046 26.2888 39.5046 25.2373 40.2686L12.584 49.4619C11.8003 50.0313 10.7456 49.2651 11.0449 48.3438L15.8779 33.4688C16.2796 32.2327 15.8395 30.8782 14.7881 30.1143L2.13477 20.9209C1.35115 20.3515 1.75395 19.1123 2.72266 19.1123H18.3633C19.663 19.1123 20.8152 18.2751 21.2168 17.0391L26.0498 2.16406Z" stroke="#FFCD16" stroke-width="2"/>
</svg>
