<svg width="20" height="20" viewBox="0 0 20 20" fill="none" xmlns="http://www.w3.org/2000/svg">
<path d="M3.87425 15.5462C4.82342 14.8769 5.7945 14.3551 6.7875 13.9808C7.7805 13.6064 8.85133 13.4193 10 13.4193C11.1487 13.4193 12.2212 13.6064 13.2175 13.9808C14.214 14.3551 15.1868 14.8769 16.136 15.5462C16.8278 14.7569 17.3521 13.9003 17.7087 12.9765C18.0653 12.0525 18.2435 11.0603 18.2435 10C18.2435 7.6885 17.4475 5.73667 15.8555 4.1445C14.2633 2.5525 12.3115 1.7565 10 1.7565C7.6885 1.7565 5.73667 2.5525 4.1445 4.1445C2.5525 5.73667 1.7565 7.6885 1.7565 10C1.7565 11.0603 1.9365 12.0525 2.2965 12.9765C2.6565 13.9003 3.18242 14.7569 3.87425 15.5462ZM9.9965 10.6283C9.09283 10.6283 8.332 10.3181 7.714 9.69775C7.09617 9.07742 6.78725 8.31542 6.78725 7.41175C6.78725 6.50825 7.09742 5.7475 7.71775 5.1295C8.33792 4.5115 9.09983 4.2025 10.0035 4.2025C10.9072 4.2025 11.668 4.51267 12.286 5.133C12.9038 5.75333 13.2128 6.51533 13.2128 7.419C13.2128 8.3225 12.9026 9.08325 12.2822 9.70125C11.6621 10.3193 10.9002 10.6283 9.9965 10.6283ZM10.0078 19.5C8.69025 19.5 7.45417 19.2519 6.2995 18.7558C5.145 18.2596 4.13792 17.5812 3.27825 16.7205C2.41842 15.8598 1.74042 14.854 1.24425 13.703C0.748083 12.552 0.5 11.3173 0.5 9.99875C0.5 8.68042 0.748083 7.44608 1.24425 6.29575C1.74042 5.14558 2.41883 4.14017 3.2795 3.2795C4.14017 2.41883 5.146 1.74042 6.297 1.24425C7.448 0.748084 8.68275 0.5 10.0013 0.5C11.3196 0.5 12.5539 0.748084 13.7042 1.24425C14.8544 1.74042 15.8598 2.41883 16.7205 3.2795C17.5812 4.14017 18.2596 5.14583 18.7558 6.2965C19.2519 7.447 19.5 8.67892 19.5 9.99225C19.5 11.3098 19.2519 12.5458 18.7558 13.7005C18.2596 14.855 17.5812 15.8621 16.7205 16.7218C15.8598 17.5816 14.8542 18.2596 13.7035 18.7558C12.553 19.2519 11.3211 19.5 10.0078 19.5ZM10 18.2435C10.9205 18.2435 11.8217 18.0967 12.7035 17.803C13.5853 17.5092 14.4008 17.0552 15.15 16.441C14.4008 15.882 13.5922 15.448 12.724 15.139C11.8558 14.83 10.9478 14.6755 10 14.6755C9.05217 14.6755 8.14258 14.8284 7.27125 15.1342C6.39975 15.4401 5.59483 15.8757 4.8565 16.441C5.60133 17.0552 6.41467 17.5092 7.2965 17.803C8.17833 18.0967 9.0795 18.2435 10 18.2435ZM10.001 9.37175C10.5653 9.37175 11.0323 9.18667 11.402 8.8165C11.7717 8.44617 11.9565 7.97883 11.9565 7.4145C11.9565 6.85017 11.7713 6.38317 11.401 6.0135C11.0308 5.64383 10.5635 5.459 9.999 5.459C9.43467 5.459 8.96767 5.64408 8.598 6.01425C8.22833 6.38458 8.0435 6.85192 8.0435 7.41625C8.0435 7.98058 8.22867 8.44758 8.599 8.81725C8.96917 9.18692 9.4365 9.37175 10.001 9.37175Z" fill="#1A1A1A"/>
</svg>
