<?xml version="1.0" encoding="UTF-8"?>
<!DOCTYPE svg PUBLIC "-//W3C//DTD SVG 1.1//EN" "http://www.w3.org/Graphics/SVG/1.1/DTD/svg11.dtd">
<!-- Creator: CorelDRAW -->
<svg xmlns="http://www.w3.org/2000/svg" xml:space="preserve" width="30px" height="30px" version="1.1" style="shape-rendering:geometricPrecision; text-rendering:geometricPrecision; image-rendering:optimizeQuality; fill-rule:evenodd; clip-rule:evenodd"
viewBox="0 0 1.61 1.61"
 xmlns:xlink="http://www.w3.org/1999/xlink"
 xmlns:xodm="http://www.corel.com/coreldraw/odm/2003">
 <defs>
  <style type="text/css">
   <![CDATA[
    .fil0 {fill:#66547F;fill-rule:nonzero}
   ]]>
  </style>
 </defs>
 <g id="Layer_x0020_1">
  <metadata id="CorelCorpID_0Corel-Layer"/>
  <path id="icon-account-states-56.svg" class="fil0" d="M0.29 1.28c0.08,-0.06 0.16,-0.11 0.24,-0.14 0.09,-0.03 0.18,-0.04 0.28,-0.04 0.09,0 0.18,0.01 0.27,0.04 0.08,0.03 0.17,0.08 0.25,0.14 0.05,-0.07 0.1,-0.14 0.13,-0.22 0.03,-0.08 0.04,-0.16 0.04,-0.25 0,-0.2 -0.06,-0.37 -0.2,-0.5 -0.13,-0.14 -0.3,-0.2 -0.49,-0.2 -0.2,0 -0.37,0.06 -0.5,0.2 -0.14,0.13 -0.2,0.3 -0.2,0.5 0,0.09 0.01,0.17 0.04,0.25 0.03,0.08 0.08,0.15 0.14,0.22zm0.52 -0.42c-0.08,0 -0.15,-0.03 -0.2,-0.08 -0.05,-0.05 -0.08,-0.12 -0.08,-0.19 0,-0.08 0.03,-0.15 0.08,-0.2 0.05,-0.05 0.12,-0.08 0.2,-0.08 0.07,0 0.14,0.03 0.19,0.08 0.05,0.06 0.08,0.12 0.08,0.2 0,0.07 -0.03,0.14 -0.08,0.19 -0.05,0.05 -0.12,0.08 -0.19,0.08zm0 0.75c-0.12,0 -0.22,-0.02 -0.32,-0.06 -0.1,-0.04 -0.18,-0.1 -0.25,-0.17 -0.08,-0.08 -0.13,-0.16 -0.18,-0.26 -0.04,-0.1 -0.06,-0.2 -0.06,-0.31 0,-0.12 0.02,-0.22 0.06,-0.32 0.05,-0.1 0.1,-0.18 0.18,-0.25 0.07,-0.08 0.15,-0.13 0.25,-0.18 0.1,-0.04 0.2,-0.06 0.32,-0.06 0.11,0 0.21,0.02 0.31,0.06 0.1,0.05 0.18,0.1 0.26,0.18 0.07,0.07 0.13,0.15 0.17,0.25 0.04,0.1 0.06,0.2 0.06,0.31 0,0.12 -0.02,0.22 -0.06,0.32 -0.04,0.1 -0.1,0.18 -0.17,0.26 -0.08,0.07 -0.16,0.13 -0.26,0.17 -0.1,0.04 -0.2,0.06 -0.31,0.06zm0 -0.11c0.07,0 0.15,-0.01 0.22,-0.03 0.08,-0.03 0.15,-0.07 0.21,-0.12 -0.06,-0.05 -0.13,-0.08 -0.2,-0.11 -0.08,-0.03 -0.15,-0.04 -0.23,-0.04 -0.09,0 -0.16,0.01 -0.24,0.04 -0.07,0.03 -0.14,0.06 -0.2,0.11 0.06,0.05 0.13,0.09 0.21,0.12 0.07,0.02 0.15,0.03 0.23,0.03zm0 -0.75c0.04,0 0.08,-0.01 0.11,-0.04 0.04,-0.04 0.05,-0.08 0.05,-0.12 0,-0.05 -0.01,-0.09 -0.05,-0.12 -0.03,-0.03 -0.07,-0.05 -0.11,-0.05 -0.05,0 -0.09,0.02 -0.12,0.05 -0.03,0.03 -0.05,0.07 -0.05,0.12 0,0.04 0.02,0.08 0.05,0.12 0.03,0.03 0.07,0.04 0.12,0.04z"/>
 </g>
</svg>
