<svg width="18" height="18" viewBox="0 0 18 18" fill="none" xmlns="http://www.w3.org/2000/svg">
<path d="M17.7101 0.292893C17.3195 -0.0976308 16.6864 -0.0976313 16.2959 0.292893L9.00148 7.58727L1.70711 0.292895C1.31658 -0.0976294 0.683417 -0.0976294 0.292893 0.292895C-0.0976308 0.683419 -0.0976313 1.31658 0.292893 1.70711L7.58727 9.00148L0.292914 16.2958C-0.0976103 16.6864 -0.0976103 17.3195 0.292914 17.71C0.683438 18.1006 1.3166 18.1006 1.70713 17.71L9.00148 10.4157L16.2958 17.71C16.6864 18.1006 17.3195 18.1006 17.71 17.7101C18.1006 17.3195 18.1006 16.6864 17.71 16.2958L10.4157 9.00148L17.7101 1.70711C18.1006 1.31658 18.1006 0.683417 17.7101 0.292893Z" fill="#0F0F0F"/>
</svg>
