<svg width="34" height="29" viewBox="0 0 34 29" fill="none" xmlns="http://www.w3.org/2000/svg">
<path fill-rule="evenodd" clip-rule="evenodd" d="M16.8417 4.27585C14.8964 2.00609 12.0157 0.253761 8.933 0.528396C3.32579 1.02796 0.5 5.939 0.5 10.2487C0.5 13.7804 2.89808 17.6384 5.86803 20.8469C8.8907 24.1122 12.7848 27.0072 16.2977 28.5822C16.649 28.7399 17.051 28.7399 17.4023 28.5822C20.9151 27.0071 24.8093 24.1121 27.8319 20.8468C30.8019 17.6384 33.2 13.7804 33.2 10.2487C33.2 5.94508 30.3749 1.0147 24.747 0.596871C21.4517 0.352206 18.7262 2.03153 16.8417 4.27585ZM15.6995 7.27543C14.166 4.77794 11.5288 3.00784 9.17258 3.21775C5.33925 3.55927 3.2 6.91874 3.2 10.2487C3.2 12.7095 4.98024 15.9131 7.84944 19.0127C10.5017 21.878 13.8539 24.4034 16.85 25.8603C19.8461 24.4034 23.1983 21.8778 25.8506 19.0127C28.7198 15.9131 30.5 12.7095 30.5 10.2487C30.5 6.91267 28.3601 3.57256 24.5472 3.28946C21.89 3.09217 19.5291 4.78562 18.0005 7.27543C17.7549 7.67534 17.3193 7.91905 16.85 7.91905C16.3806 7.91905 15.945 7.67534 15.6995 7.27543Z" fill="#65558F"/>
</svg>
