<?xml version="1.0" encoding="UTF-8"?>
<!DOCTYPE svg PUBLIC "-//W3C//DTD SVG 1.1//EN" "http://www.w3.org/Graphics/SVG/1.1/DTD/svg11.dtd">
<!-- Creator: CorelDRAW -->
<svg xmlns="http://www.w3.org/2000/svg" xml:space="preserve" width="30px" height="30px" version="1.1" style="shape-rendering:geometricPrecision; text-rendering:geometricPrecision; image-rendering:optimizeQuality; fill-rule:evenodd; clip-rule:evenodd"
viewBox="0 0 1.2 1.2"
 xmlns:xlink="http://www.w3.org/1999/xlink"
 xmlns:xodm="http://www.corel.com/coreldraw/odm/2003">
 <defs>
  <style type="text/css">
   <![CDATA[
    .fil0 {fill:#66547F;fill-rule:nonzero}
   ]]>
  </style>
 </defs>
 <g id="Layer_x0020_1">
  <metadata id="CorelCorpID_0Corel-Layer"/>
  <path class="fil0" d="M0.36 1.2c-0.03,0 -0.05,-0.01 -0.07,-0.03 -0.02,-0.02 -0.03,-0.04 -0.03,-0.07 0,-0.03 0.01,-0.05 0.03,-0.07 0.02,-0.02 0.04,-0.03 0.07,-0.03 0.03,0 0.06,0.01 0.08,0.03 0.02,0.02 0.03,0.04 0.03,0.07 0,0.03 -0.01,0.05 -0.03,0.07 -0.02,0.02 -0.05,0.03 -0.08,0.03zm0.63 0c-0.03,0 -0.06,-0.01 -0.08,-0.03 -0.02,-0.02 -0.03,-0.04 -0.03,-0.07 0,-0.03 0.01,-0.05 0.03,-0.07 0.03,-0.02 0.05,-0.03 0.08,-0.03 0.03,0 0.05,0.01 0.08,0.03 0.02,0.02 0.03,0.04 0.03,0.07 0,0.03 -0.01,0.05 -0.03,0.07 -0.03,0.02 -0.05,0.03 -0.08,0.03zm-0.71 -1l0.17 0.35 0.45 0c0,0 0,0 0.01,0 0,0 0,0 0,-0.01l0.19 -0.32c0,-0.01 0,-0.01 0,-0.01 0,-0.01 0,-0.01 -0.01,-0.01l-0.81 0zm-0.05 -0.08l0.9 0c0.03,0 0.05,0.01 0.06,0.04 0.02,0.02 0.02,0.04 0,0.06l-0.2 0.36c-0.01,0.01 -0.02,0.03 -0.04,0.04 -0.02,0.01 -0.04,0.01 -0.06,0.01l-0.47 0 -0.09 0.15c0,0.01 0,0.01 0,0.02 0.01,0 0.01,0.01 0.02,0.01l0.75 0 0 0.07 -0.75 0c-0.04,0 -0.07,-0.01 -0.09,-0.04 -0.02,-0.03 -0.02,-0.06 0,-0.1l0.1 -0.17 -0.24 -0.49 -0.12 0 0 -0.08 0.17 0 0.06 0.12z"/>
 </g>
</svg>
