<svg width="20" height="14" viewBox="0 0 20 14" fill="none" xmlns="http://www.w3.org/2000/svg">
<path d="M17.1367 0.755371H2.86328C1.54953 0.755371 0.484375 1.82112 0.484375 3.13428V10.8657C0.484375 12.1795 1.54953 13.2446 2.86328 13.2446H17.1367C18.4505 13.2446 19.5156 12.1795 19.5156 10.8657V3.13428C19.5156 1.82112 18.4505 0.755371 17.1367 0.755371ZM1.67383 3.87769L5.83632 7L1.67383 10.1223V3.87769ZM18.3262 10.8657C18.3262 11.5223 17.7921 12.0552 17.1367 12.0552H2.86328C2.2073 12.0552 1.67383 11.5223 1.67383 10.8657L6.33173 7.3717L8.92949 9.32062C9.24648 9.55733 9.62294 9.67746 10 9.67746C10.3765 9.67746 10.7529 9.55792 11.0699 9.32062L13.6683 7.3717L18.3262 10.8657ZM18.3262 10.1223L14.1631 7L18.3262 3.87769V10.1223ZM10.7131 8.84484C10.5055 9.00066 10.2593 9.08273 10 9.08273C9.7407 9.08273 9.49389 9.00007 9.28633 8.84484L1.67383 3.13428C1.67383 2.47829 2.2073 1.94482 2.86328 1.94482H17.1367C17.7921 1.94482 18.3262 2.47829 18.3262 3.13428L10.7131 8.84484Z" fill="white"/>
</svg>
