<svg width="14" height="14" viewBox="0 0 14 14" fill="none" xmlns="http://www.w3.org/2000/svg">
<path d="M13.9863 10.1637C13.9966 9.70791 13.8357 9.2674 13.5567 8.92329C13.263 8.56194 12.8359 8.30594 12.3277 8.2338C11.817 8.17123 11.2456 8.03333 10.6768 7.82138C10.4003 7.71987 10.1067 7.6822 9.81874 7.71029C9.39547 7.75115 8.98432 7.9331 8.65745 8.25614L8.19779 8.7158C7.06779 8.00269 6.0527 7.01314 5.27192 5.7861L5.73541 5.3226C5.94098 5.11192 6.09484 4.85911 6.18677 4.58459C6.32212 4.18111 6.32339 3.73166 6.16187 3.30073C5.97737 2.82 5.83117 2.25117 5.75073 1.64403C5.68434 1.1882 5.45961 0.785358 5.13593 0.492323C4.79182 0.182051 4.33408 -0.00500538 3.84186 0.00010197H1.92915C1.87297 0.00010197 1.81296 0.00265562 1.75486 0.00776298C1.22881 0.0556444 0.770421 0.312927 0.456957 0.688318C0.143493 1.06371 -0.0269645 1.56104 0.0209169 2.0922C0.212443 4.05598 0.892359 6.07785 2.07407 7.90309C3.03298 9.4436 4.40303 10.8545 6.09484 11.929C7.7343 13.0124 9.72361 13.7561 11.8955 13.9917C11.9543 13.9974 12.0175 14 12.0794 14C12.608 13.9981 13.0868 13.781 13.4316 13.4337C13.7763 13.0864 13.9889 12.6057 13.987 12.0796L13.9863 10.1637ZM12.7095 10.1637V12.079C12.7101 12.2578 12.6399 12.4174 12.5244 12.5335C12.4088 12.6497 12.2505 12.7219 12.0736 12.7225C10.0633 12.508 8.26802 11.8345 6.79838 10.8634C5.24829 9.87836 4.01551 8.60536 3.15811 7.22828C2.07471 5.55563 1.46311 3.72911 1.29137 1.96899C1.27605 1.79789 1.33223 1.63318 1.43757 1.50677C1.54291 1.38036 1.69485 1.29609 1.87042 1.28013L3.84186 1.27694C4.01487 1.27503 4.16553 1.33695 4.28045 1.44038C4.38898 1.53869 4.46431 1.67404 4.48666 1.82853C4.57732 2.51292 4.74713 3.18007 4.96994 3.75975C5.02166 3.89765 5.02102 4.04513 4.97633 4.17983C4.94504 4.2724 4.89269 4.35923 4.82183 4.43201L4.01615 5.23705C3.8093 5.4439 3.77418 5.75673 3.91272 6.0038C4.92398 7.78179 6.36361 9.16844 7.98647 10.0756C8.23993 10.2174 8.54956 10.1676 8.74939 9.96966L9.56018 9.15886C9.66616 9.05416 9.80086 8.99479 9.94195 8.98075C10.039 8.97117 10.1399 8.98394 10.235 9.01905C10.8875 9.26229 11.5565 9.42509 12.172 9.50042C12.3258 9.52213 12.4669 9.6064 12.5646 9.72706C12.6584 9.84261 12.7121 9.99009 12.7089 10.1625L12.7095 10.1637Z" fill="white"/>
</svg>
