<?xml version="1.0" encoding="UTF-8"?>
<!DOCTYPE svg PUBLIC "-//W3C//DTD SVG 1.1//EN" "http://www.w3.org/Graphics/SVG/1.1/DTD/svg11.dtd">
<!-- Creator: CorelDRAW -->
<svg xmlns="http://www.w3.org/2000/svg" xml:space="preserve" width="787px" height="118px" version="1.1" style="shape-rendering:geometricPrecision; text-rendering:geometricPrecision; image-rendering:optimizeQuality; fill-rule:evenodd; clip-rule:evenodd"
viewBox="0 0 41146 6178"
 xmlns:xlink="http://www.w3.org/1999/xlink"
 xmlns:xodm="http://www.corel.com/coreldraw/odm/2003">
 <defs>
  <style type="text/css">
   <![CDATA[
    .fil0 {fill:#393185;fill-rule:nonzero}
   ]]>
  </style>
 </defs>
 <g id="Layer_x0020_1">
  <metadata id="CorelCorpID_0Corel-Layer"/>
  <path class="fil0" d="M2009 6178c-243,0 -483,-24 -720,-71 -237,-48 -453,-117 -649,-209 -196,-92 -351,-205 -467,-338 -115,-133 -173,-283 -173,-449l0 -1040 249 0c95,616 286,1055 573,1316 288,260 680,391 1178,391 225,0 422,-33 591,-98 169,-65 299,-161 391,-289 92,-127 138,-286 138,-475 0,-255 -82,-467 -244,-636 -163,-169 -387,-339 -672,-511l-1093 -658c-403,-237 -687,-480 -853,-729 -166,-249 -249,-536 -249,-862 0,-468 179,-838 538,-1111 358,-273 843,-409 1453,-409 243,0 483,24 720,71 237,48 453,117 649,209 195,92 351,203 466,333 116,131 174,282 174,454l0 1040 -249 0c-101,-617 -290,-1055 -569,-1316 -278,-261 -643,-391 -1093,-391 -214,0 -399,36 -556,107 -157,71 -277,170 -360,297 -83,128 -124,280 -124,458 0,249 84,451 253,605 169,154 393,314 671,480l1093 649c403,237 698,469 885,697 187,228 280,505 280,831 0,510 -193,913 -578,1209 -385,297 -936,445 -1653,445z"/>
  <path id="_1" class="fil0" d="M7022 6116c-438,0 -818,-97 -1138,-289 -320,-193 -566,-455 -737,-787 -172,-332 -258,-699 -258,-1102 0,-409 86,-778 258,-1107 171,-329 417,-589 737,-782 320,-193 700,-289 1138,-289 445,0 825,96 1142,289 317,193 562,453 734,782 171,329 257,698 257,1107 0,403 -86,770 -257,1102 -172,332 -417,594 -734,787 -317,192 -697,289 -1142,289zm0 -400c208,0 381,-78 520,-232 139,-154 243,-365 311,-635 68,-270 102,-573 102,-911 0,-344 -34,-649 -102,-916 -68,-266 -172,-477 -311,-631 -139,-154 -312,-231 -520,-231 -207,0 -381,77 -520,231 -139,154 -243,365 -311,631 -68,267 -102,572 -102,916 0,338 34,641 102,911 68,270 172,481 311,635 139,154 313,232 520,232z"/>
  <path id="_2" class="fil0" d="M10187 6027l0 -3023c0,-266 -36,-481 -107,-644 -71,-163 -240,-244 -507,-244l-89 0 0 -267 880 0c178,0 332,25 463,75 130,51 228,138 293,263l35 0c107,-95 254,-190 440,-285 187,-95 414,-142 680,-142 226,0 421,31 587,93 166,63 304,134 413,214 110,80 186,146 227,200 119,-131 273,-248 462,-351 190,-104 457,-156 800,-156 332,0 614,56 845,169 231,112 407,289 529,529 121,240 182,552 182,938l0 2631 -1156 0 0 -2640c0,-433 -68,-738 -204,-916 -137,-178 -305,-267 -507,-267 -166,0 -315,33 -449,98 -133,65 -238,145 -315,240 47,89 83,209 106,360 24,151 36,316 36,494l0 2631 -1156 0 0 -2640c0,-433 -68,-738 -204,-916 -136,-178 -305,-267 -507,-267 -112,0 -226,32 -342,94 -115,62 -209,126 -280,191l0 3538 -1155 0z"/>
  <path id="_3" class="fil0" d="M19191 6116c-415,0 -776,-95 -1085,-285 -308,-190 -545,-449 -711,-778 -166,-329 -249,-700 -249,-1115 0,-474 86,-873 258,-1196 172,-323 406,-567 702,-733 297,-166 629,-249 996,-249 367,0 699,74 996,222 296,148 530,356 702,622 172,267 258,578 258,934l-36 560 -2676 0c0,586 91,1003 272,1249 180,246 416,369 706,369 308,0 559,-72 751,-214 193,-142 366,-317 520,-524l276 204c-83,131 -194,268 -333,414 -140,145 -318,268 -534,368 -216,101 -487,152 -813,152zm-845 -2418l1512 0c0,-587 -70,-990 -209,-1209 -140,-219 -322,-329 -547,-329 -130,0 -253,47 -369,142 -115,95 -209,254 -280,476 -71,222 -107,529 -107,920z"/>
  <path id="_4" class="fil0" d="M23244 6107l-1920 -4907c-136,-338 -272,-572 -409,-702 -136,-131 -293,-208 -471,-231l0 -178c24,0 82,-3 174,-9 91,-6 158,-9 200,-9 207,0 420,22 640,67 219,44 426,146 622,306 195,160 361,412 498,756l1200 3067 799 -2276 -311 -791c-136,-338 -283,-572 -440,-702 -157,-131 -324,-208 -502,-231l0 -178c24,0 77,-3 160,-9 83,-6 145,-9 187,-9 207,0 421,24 640,71 219,48 426,150 622,307 196,157 362,407 498,751l1271 3236 1520 -4276 427 0 -2107 5947 -356 0 -1369 -3485 -1217 3485 -356 0z"/>
  <path id="_5" class="fil0" d="M30729 6116c-439,0 -818,-97 -1138,-289 -320,-193 -566,-455 -738,-787 -172,-332 -258,-699 -258,-1102 0,-409 86,-778 258,-1107 172,-329 418,-589 738,-782 320,-193 699,-289 1138,-289 444,0 825,96 1142,289 317,193 561,453 733,782 172,329 258,698 258,1107 0,403 -86,770 -258,1102 -172,332 -416,594 -733,787 -317,192 -698,289 -1142,289zm0 -400c207,0 380,-78 520,-232 139,-154 243,-365 311,-635 68,-270 102,-573 102,-911 0,-344 -34,-649 -102,-916 -68,-266 -172,-477 -311,-631 -140,-154 -313,-231 -520,-231 -208,0 -381,77 -520,231 -140,154 -243,365 -312,631 -68,267 -102,572 -102,916 0,338 34,641 102,911 69,270 172,481 312,635 139,154 312,232 520,232z"/>
  <path id="_6" class="fil0" d="M33893 6027l0 -3023c0,-266 -36,-481 -107,-644 -71,-163 -240,-244 -506,-244l-89 0 0 -267 880 0c201,0 360,25 475,75 116,51 206,135 271,254 107,-95 254,-188 440,-280 187,-92 414,-138 680,-138 131,0 249,15 356,44 107,30 198,75 276,134 100,71 176,157 226,258 51,100 76,148 76,142l-454 346c-53,-77 -131,-154 -235,-231 -104,-77 -230,-115 -378,-115 -190,0 -350,26 -480,80 -130,53 -234,118 -311,195 12,107 21,193 27,258 6,65 8,122 8,169l0 2987 -1155 0z"/>
  <path id="_7" class="fil0" d="M39013 6116c-415,0 -760,-97 -1036,-289 -275,-193 -483,-455 -622,-787 -139,-332 -209,-699 -209,-1102 0,-409 70,-778 209,-1107 139,-329 351,-589 636,-782 284,-193 640,-289 1066,-289 202,0 381,28 538,84 157,57 289,117 396,183l0 -711c0,-267 -37,-482 -111,-645 -75,-163 -245,-244 -512,-244l-88 0 0 -267 1066 0c208,0 369,36 485,107 115,71 197,189 244,355 47,166 71,397 71,694l0 4711 -755 0 -311 -400 -45 0c-77,118 -203,229 -378,333 -174,104 -389,156 -644,156zm178 -400c142,0 266,-33 373,-98 107,-65 196,-144 267,-236 71,-92 124,-173 160,-244l0 -2711c-83,-66 -190,-126 -320,-183 -131,-56 -276,-84 -436,-84 -219,0 -394,77 -524,231 -131,154 -224,365 -280,631 -57,267 -85,572 -85,916 0,338 27,641 80,911 54,270 142,481 267,635 124,154 290,232 498,232z"/>
 </g>
</svg>
